<?xml version="1.0" standalone="no"?>
<!DOCTYPE svg PUBLIC "-//W3C//DTD SVG 20010904//EN"
 "http://www.w3.org/TR/2001/REC-SVG-20010904/DTD/svg10.dtd">
<svg version="1.0" xmlns="http://www.w3.org/2000/svg"
 width="1272.000000pt" height="1272.000000pt" viewBox="0 0 1272.000000 1272.000000"
 preserveAspectRatio="xMidYMid meet">
<metadata>
Created by potrace 1.14, written by Peter Selinger 2001-2017
</metadata>
<g transform="translate(0.000000,1272.000000) scale(0.100000,-0.100000)"
fill="#000000" stroke="none">
<path d="M11455 11033 c-110 -32 -216 -133 -252 -238 -12 -34 -17 -79 -17
-140 1 -110 29 -179 105 -255 191 -193 506 -139 622 107 28 61 32 78 32 158 0
80 -4 97 -32 157 -51 107 -125 174 -234 209 -61 20 -161 21 -224 2z m205 -55
c81 -25 155 -94 193 -177 32 -70 30 -207 -4 -281 -99 -213 -382 -243 -536 -57
-61 75 -79 231 -37 332 39 95 132 175 221 191 15 3 29 6 30 8 6 6 100 -5 133
-16z"/>
<path d="M11419 10848 c0 -53 0 -319 0 -371 1 -37 2 -38 34 -35 l32 3 2 90 c0
50 2 92 2 95 1 3 17 5 35 5 38 -1 44 -7 119 -131 33 -55 40 -61 72 -62 19 -1
35 1 35 4 0 3 -27 46 -60 96 -61 92 -64 107 -18 108 21 0 68 55 70 83 3 44 -4
81 -19 103 -27 41 -63 52 -187 53 l-116 2 -1 -43z m196 -17 c54 -2 79 -81 40
-121 -18 -17 -154 -28 -164 -12 -5 8 -6 80 -2 128 1 7 20 10 49 8 26 -1 61 -3
77 -3z"/>
<path d="M3939 11030 c-25 -3 -65 -5 -90 -5 -24 0 -47 -4 -51 -10 -5 -6 -8 -5
-8 3 0 7 -5 10 -10 7 -6 -4 -39 -8 -73 -11 -76 -5 -142 -11 -142 -14 0 -1
-108 -12 -142 -14 -13 0 -23 -3 -23 -6 0 -5 -28 -10 -67 -13 -7 0 -13 -3 -13
-6 0 -3 -12 -7 -27 -8 -40 -2 -74 -9 -103 -21 -14 -5 -28 -8 -32 -5 -5 2 -8 0
-8 -5 0 -5 -6 -9 -12 -10 -19 -1 -40 -7 -73 -21 -16 -7 -35 -14 -42 -15 -7 -1
-16 -5 -19 -9 -4 -4 -16 -7 -26 -7 -10 0 -18 -4 -18 -8 0 -4 -10 -8 -21 -9
-12 -1 -29 -9 -38 -17 -10 -9 -24 -16 -32 -16 -8 0 -20 -5 -27 -12 -7 -7 -12
-8 -12 -2 0 5 -3 5 -8 -1 -4 -6 -32 -23 -62 -39 -30 -16 -63 -36 -72 -44 -10
-8 -18 -11 -18 -6 0 5 -6 2 -13 -7 -7 -9 -23 -22 -37 -29 -31 -16 -157 -110
-187 -139 -13 -12 -23 -19 -23 -16 0 9 -184 -179 -226 -231 -21 -27 -45 -55
-52 -63 -23 -24 -112 -160 -112 -171 0 -5 -4 -10 -9 -10 -5 0 -14 -13 -20 -30
-5 -16 -15 -30 -20 -30 -6 0 -11 -3 -10 -7 2 -16 -14 -53 -23 -53 -5 0 -6 -4
-3 -10 3 -5 1 -10 -5 -10 -6 0 -8 -4 -5 -10 3 -5 1 -10 -6 -10 -7 0 -10 -3 -7
-6 3 -3 -7 -31 -23 -62 -16 -31 -29 -65 -29 -74 0 -10 -4 -18 -10 -18 -5 0 -7
-7 -4 -15 4 -8 2 -15 -3 -15 -5 0 -15 -21 -22 -47 -8 -27 -15 -52 -17 -58 -21
-68 -41 -155 -36 -159 3 -4 1 -6 -4 -6 -6 0 -11 -10 -11 -22 -1 -13 -4 -32 -6
-43 -3 -11 -8 -44 -12 -72 -5 -35 -11 -51 -19 -46 -6 4 -5 0 2 -9 7 -9 9 -18
5 -21 -4 -3 -8 -30 -8 -61 0 -31 -4 -56 -9 -56 -5 0 -6 -13 -3 -29 3 -15 1
-33 -6 -40 -8 -8 -7 -11 4 -11 12 0 12 -2 -1 -10 -11 -7 -11 -10 -2 -10 8 0
10 -5 5 -12 -4 -7 -9 -42 -10 -78 -2 -36 -5 -71 -8 -77 -2 -7 1 -13 7 -13 7 0
6 -5 -2 -15 -10 -12 -10 -15 1 -15 9 0 10 -3 4 -8 -15 -10 -16 -124 -1 -115 8
5 8 3 0 -8 -16 -20 -10 -5024 6 -5024 0 0 3 -36 6 -80 8 -127 8 -130 19 -137
6 -5 5 -8 -4 -8 -11 0 -11 -3 -1 -15 7 -8 10 -22 6 -30 -3 -8 0 -15 7 -15 8 0
6 -4 -3 -10 -8 -5 -10 -10 -4 -10 6 0 10 -16 9 -35 0 -19 3 -35 7 -35 6 0 8
-9 9 -57 0 -13 4 -23 8 -23 5 0 7 -10 7 -23 -1 -12 2 -27 6 -33 5 -7 8 -16 7
-20 -1 -5 0 -11 1 -14 1 -3 3 -13 5 -23 2 -10 7 -26 11 -35 9 -22 9 -19 24
-75 7 -26 16 -50 21 -53 5 -3 9 -14 9 -25 0 -10 4 -19 8 -19 4 0 9 -12 10 -27
1 -15 7 -30 13 -34 6 -3 11 -10 11 -15 0 -5 17 -42 37 -82 54 -110 63 -126 78
-140 7 -8 11 -18 8 -23 -4 -5 -2 -9 3 -9 4 0 18 -18 30 -39 12 -22 26 -41 31
-43 5 -2 11 -10 13 -18 2 -8 13 -25 26 -38 13 -12 21 -22 18 -22 -4 0 2 -8 11
-19 10 -10 41 -44 68 -76 75 -88 148 -158 260 -251 17 -13 61 -46 100 -72 38
-26 76 -53 83 -60 8 -7 18 -10 23 -7 5 4 9 2 9 -2 0 -5 26 -22 58 -38 31 -17
60 -34 64 -40 5 -7 8 -7 8 0 0 6 4 4 8 -3 5 -7 17 -14 28 -16 11 -2 40 -16 66
-30 25 -14 49 -22 52 -18 4 3 11 1 15 -6 4 -7 16 -14 27 -16 10 -2 31 -9 47
-15 15 -6 27 -8 27 -5 0 4 6 2 13 -4 13 -10 88 -34 120 -37 11 -1 22 -6 25
-11 4 -5 23 -10 42 -11 50 -3 60 -5 60 -13 0 -3 16 -5 35 -5 20 1 38 -1 40 -5
2 -3 25 -7 52 -9 26 -1 49 -6 51 -11 2 -6 11 -6 23 0 10 6 19 7 19 3 0 -4 19
-9 43 -11 79 -6 122 -10 125 -12 7 -6 49 -3 60 4 6 4 12 3 12 -2 0 -5 16 -8
36 -7 19 1 37 -2 40 -7 3 -4 14 -3 25 2 14 8 19 7 19 -2 0 -9 3 -9 10 2 5 8
10 11 10 5 0 -11 50 -12 68 -1 7 4 12 4 12 -1 0 -10 4661 -10 4677 0 6 4 14 3
18 -2 6 -10 37 -7 57 5 7 4 8 3 4 -4 -4 -7 -2 -12 3 -12 6 0 11 6 11 13 0 7 3
8 8 2 10 -14 42 -15 42 -2 0 8 3 8 11 0 6 -6 26 -7 47 -4 20 4 56 6 80 6 23
-1 42 2 42 6 0 9 20 6 37 -4 6 -4 14 -4 17 1 2 4 25 7 50 7 25 -1 46 1 46 4 0
3 21 7 48 7 42 1 69 4 182 21 19 3 47 6 63 6 15 1 27 6 27 11 0 4 6 6 14 3 7
-3 19 0 25 6 6 6 11 8 11 4 0 -3 19 0 43 7 23 7 52 12 64 11 12 -1 20 2 17 7
-3 4 2 9 10 9 43 4 206 62 278 100 10 5 25 9 33 9 8 0 15 4 15 9 0 4 21 18 48
29 46 21 58 28 114 65 16 10 28 16 28 13 0 -3 12 6 26 19 15 14 30 22 35 19 5
-3 9 -1 9 4 0 5 24 25 53 44 69 47 113 85 221 194 113 112 156 160 156 171 0
5 9 15 20 23 11 8 20 20 20 28 0 7 6 15 14 18 8 3 17 16 20 30 4 13 11 24 16
24 6 0 10 6 10 14 0 8 7 17 16 20 8 3 12 10 9 16 -3 5 -1 10 4 10 6 0 11 7 11
15 0 8 5 15 10 15 6 0 10 4 10 9 0 4 18 41 40 82 22 40 43 83 46 96 4 13 10
23 16 23 5 0 6 5 3 10 -3 6 -1 10 5 10 6 0 8 5 5 10 -3 6 -1 10 6 10 7 0 9 3
6 7 -4 3 -2 12 5 20 6 7 8 16 5 20 -4 3 -1 13 5 21 7 8 13 20 14 28 2 11 12
42 42 124 7 20 12 41 14 62 1 10 5 18 8 18 3 0 6 10 7 23 1 12 4 33 8 47 3 14
8 39 11 55 3 17 9 44 13 60 4 17 7 42 7 58 -1 15 1 27 5 27 4 0 7 15 8 33 0
17 3 52 6 77 3 25 7 70 10 100 2 30 4 55 5 55 1 0 3 35 5 78 2 43 6 81 9 84 3
3 1 14 -5 24 -7 13 -6 19 1 19 8 0 8 6 0 20 -6 11 -7 20 -3 20 10 0 11 381 1
396 -4 6 -4 14 0 18 10 11 10 209 0 223 -5 6 -5 13 -1 16 10 6 10 4038 0 4054
-4 6 -3 15 3 18 8 5 7 12 -2 23 -8 9 -8 13 -1 9 12 -7 11 53 -2 73 -3 5 -1 10
5 10 7 0 8 7 3 18 -5 9 -9 52 -8 94 0 43 -2 78 -5 78 -3 0 -7 28 -7 63 -2 88
-8 146 -16 153 -4 4 -2 13 4 21 6 7 8 13 3 13 -5 0 -10 17 -12 38 -4 52 -6 65
-16 81 -7 11 -6 12 5 6 11 -7 12 -6 4 6 -6 8 -12 28 -13 44 -2 17 -7 44 -12
60 -5 17 -11 41 -14 55 -4 28 -34 137 -43 160 -4 8 -7 18 -8 23 -2 4 -3 8 -5
10 -1 1 -3 9 -5 17 -2 8 -9 29 -16 45 -6 17 -13 35 -14 41 -4 15 -87 188 -94
194 -3 3 -7 10 -8 16 -5 26 -163 261 -217 323 -60 69 -151 166 -161 173 -6 4
-27 22 -46 40 -19 18 -50 44 -68 58 -18 14 -40 32 -49 40 -8 8 -23 19 -33 25
-9 5 -38 25 -64 43 -25 17 -50 32 -56 32 -5 0 -9 4 -9 9 0 5 -13 14 -30 21
-16 7 -30 17 -30 22 0 5 -4 7 -9 3 -5 -3 -16 1 -24 9 -8 8 -17 12 -21 9 -3 -4
-6 -1 -6 6 0 7 -4 9 -10 6 -5 -3 -10 -1 -10 4 0 6 -3 10 -7 9 -5 -1 -24 6 -43
17 -19 11 -38 20 -42 21 -5 1 -10 3 -13 4 -3 1 -8 3 -12 5 -15 4 -88 36 -106
46 -10 5 -22 7 -27 4 -6 -4 -10 -1 -10 6 0 7 -3 10 -6 6 -4 -3 -19 0 -35 9
-16 8 -29 12 -29 10 0 -3 -15 1 -32 8 -18 7 -39 11 -45 9 -7 -3 -13 -1 -13 4
0 5 -10 10 -22 11 -28 3 -63 10 -63 13 0 2 -28 7 -70 13 -16 2 -30 5 -30 6 0
1 -18 4 -40 6 -44 5 -80 12 -80 14 0 2 -92 11 -135 13 -19 1 -38 6 -42 12 -5
6 -8 5 -8 -3 0 -7 -5 -10 -11 -6 -6 4 -53 8 -103 10 -50 2 -97 6 -103 9 -7 2
-13 -1 -13 -7 0 -7 -4 -7 -13 0 -8 7 -18 7 -27 2 -8 -5 -19 -6 -25 -2 -11 8
-4836 10 -4906 2z"/>
</g>
</svg>
