<svg xmlns="http://www.w3.org/2000/svg" width="24" height="24" viewBox="0 0 24 24"><g transform="translate(-3676 -948)"><rect width="24" height="24" transform="translate(3676 948)" fill="#816bff" opacity="0"/><path d="M3693.735,953.057a.211.211,0,0,0-.235.205v.238a2.814,2.814,0,0,1-3,3h-5a2.814,2.814,0,0,1-3-3v-.238a.211.211,0,0,0-.235-.205c-1.513.22-2.265,1.2-2.265,2.943v10a2.652,2.652,0,0,0,3,3h10a2.652,2.652,0,0,0,3-3V956C3696,954.258,3695.248,953.277,3693.735,953.057Zm-7.705,10.807L3684.7,965.2a.749.749,0,0,1-1.06,0l-.667-.666a.75.75,0,0,1,1.06-1.062l.137.137.8-.8a.75.75,0,0,1,1.06,1.061Zm0-4L3684.7,961.2a.749.749,0,0,1-1.06,0l-.667-.666a.75.75,0,0,1,1.06-1.062l.137.137.8-.8a.75.75,0,0,1,1.06,1.061Zm6.47,4.886h-4a.75.75,0,0,1,0-1.5h4a.75.75,0,0,1,0,1.5Zm0-4h-4a.75.75,0,0,1,0-1.5h4a.75.75,0,0,1,0,1.5Zm-8.5-7.25v-1a1.326,1.326,0,0,1,1.5-1.5h5a1.326,1.326,0,0,1,1.5,1.5v1a1.326,1.326,0,0,1-1.5,1.5h-5A1.326,1.326,0,0,1,3684,953.5Z" fill="#816bff"/></g></svg>