<svg xmlns="http://www.w3.org/2000/svg" width="24" height="24" viewBox="0 0 24 24"><g transform="translate(-2528 -3124)"><rect width="24" height="24" transform="translate(2528 3124)" fill="#1ee0ac" opacity="0"/><path d="M2549.75,3136a.75.75,0,0,1-.75.75h-1.5V3142c0,2.29-1.21,3.5-3.5,3.5h-8c-2.29,0-3.5-1.21-3.5-3.5v-5.25H2531a.75.75,0,0,1,0-1.5h18A.75.75,0,0,1,2549.75,3136Zm-16.75-2.25a.75.75,0,0,0,.75-.75v-3c0-1.577.673-2.25,2.25-2.25h8c1.577,0,2.25.673,2.25,2.25v3a.75.75,0,0,0,1.5,0v-3a3.383,3.383,0,0,0-3.75-3.75h-8a3.383,3.383,0,0,0-3.75,3.75v3A.75.75,0,0,0,2533,3133.75Z" fill="#1ee0ac"/></g></svg>