<svg xmlns="http://www.w3.org/2000/svg" width="24" height="24" viewBox="0 0 24 24"><g transform="translate(-1268 -516)"><rect width="24" height="24" transform="translate(1268 516)" fill="#1ee0ac" opacity="0"/><path d="M1270.25,524v-3.5a2.067,2.067,0,0,1,2.25-2.25h3.5a.75.75,0,0,1,0,1.5h-3.5c-.589,0-.75.161-.75.75V524a.75.75,0,0,1-1.5,0Zm5.75,12.25h-3.5c-.589,0-.75-.161-.75-.75V532a.75.75,0,0,0-1.5,0v3.5a2.067,2.067,0,0,0,2.25,2.25h3.5a.75.75,0,0,0,0-1.5Zm13-5a.75.75,0,0,0-.75.75v3.5c0,.589-.161.75-.75.75H1284a.75.75,0,0,0,0,1.5h3.5a2.067,2.067,0,0,0,2.25-2.25V532A.75.75,0,0,0,1289,531.25Zm-1.5-13H1284a.75.75,0,0,0,0,1.5h3.5c.589,0,.75.161.75.75V524a.75.75,0,0,0,1.5,0v-3.5A2.067,2.067,0,0,0,1287.5,518.25Zm-2,12.87v-2.37h1.5a.75.75,0,0,0,0-1.5h-14a.75.75,0,0,0,0,1.5h1.5v2.37a2.147,2.147,0,0,0,2.38,2.38h6.24A2.147,2.147,0,0,0,1285.5,531.12Zm-11.25-6.24V525a.75.75,0,0,0,1.5,0v-.12c0-.845.285-1.13,1.13-1.13h6.24c.845,0,1.13.285,1.13,1.13V525a.75.75,0,0,0,1.5,0v-.12a2.394,2.394,0,0,0-2.63-2.63h-6.24A2.394,2.394,0,0,0,1274.25,524.88Z" fill="#1ee0ac"/></g></svg>