<svg xmlns="http://www.w3.org/2000/svg" width="24" height="24" viewBox="0 0 24 24"><g transform="translate(-3340 -348)"><rect width="24" height="24" transform="translate(3340 348)" fill="#ff63a5" opacity="0"/><path d="M3352.75,353v-2.25l4.5,4.5H3355C3353.42,355.25,3352.75,354.58,3352.75,353Zm5.16,6.71-5.97,6.01a1.5,1.5,0,0,0-.44,1.06v.92a.3.3,0,0,1-.3.3H3346a2.652,2.652,0,0,1-3-3V353a2.652,2.652,0,0,1,3-3h5.25v3a3.381,3.381,0,0,0,3.75,3.75h3v2.75A.272.272,0,0,1,3357.91,359.71ZM3347.75,363a.75.75,0,1,0-.75.75A.75.75,0,0,0,3347.75,363Zm0-4a.75.75,0,1,0-.75.75A.75.75,0,0,0,3347.75,359Zm4,4a.75.75,0,0,0-.75-.75h-1.5a.75.75,0,0,0,0,1.5h1.5A.75.75,0,0,0,3351.75,363Zm3-4a.75.75,0,0,0-.75-.75h-4.5a.75.75,0,0,0,0,1.5h4.5A.75.75,0,0,0,3354.75,359Zm-1.75,7.78V369h2.22l4-3.98-2.24-2.24Zm7.74-4.53-.99-.99a.887.887,0,0,0-1.26,0l-.81.82,2.24,2.24.82-.81A.887.887,0,0,0,3360.74,362.25Z" fill="#ff63a5"/></g></svg>