<svg xmlns="http://www.w3.org/2000/svg" width="24" height="24" viewBox="0 0 24 24"><g transform="translate(-1100 -292)"><rect width="24" height="24" transform="translate(1100 292)" fill="#816bff" opacity="0"/><path d="M1110.48,303.15a4.286,4.286,0,0,0,.77.24v9.52a2.639,2.639,0,0,1-.47-.17l-6-2.67a3,3,0,0,1-1.78-2.74v-6.66a2.957,2.957,0,0,1,.11-.79Zm4.34-2.23-8.15-3.83-1.89.84a2.909,2.909,0,0,0-.91.63l7.21,3.21a2.268,2.268,0,0,0,1.84,0Zm5.31-2.36a2.909,2.909,0,0,0-.91-.63l-6-2.67a2.966,2.966,0,0,0-2.44,0l-2.29,1.02,8.15,3.83Zm.76,1.32-3.51,1.56v2.45a.75.75,0,0,1-1.5,0V302.1l-2.36,1.05a5.278,5.278,0,0,1-.77.24v9.52a2.639,2.639,0,0,0,.47-.17l6-2.67a3,3,0,0,0,1.78-2.74v-6.66A2.957,2.957,0,0,0,1120.89,299.88Z" fill="#816bff"/></g></svg>