<svg xmlns="http://www.w3.org/2000/svg" width="24" height="24" viewBox="0 0 24 24">
  <g id="user-viewfinder" transform="translate(-1436 -1380)">
    <rect id="Frame" width="24" height="24" transform="translate(1436 1380)" fill="#ffa353" opacity="0"/>
    <path id="user-viewfinder-2" data-name="user-viewfinder" d="M1438.25,1388v-3.5a2.067,2.067,0,0,1,2.25-2.25h3.5a.75.75,0,0,1,0,1.5h-3.5c-.589,0-.75.161-.75.75v3.5a.75.75,0,0,1-1.5,0Zm17.25-5.75H1452a.75.75,0,0,0,0,1.5h3.5c.589,0,.75.161.75.75v3.5a.75.75,0,0,0,1.5,0v-3.5a2.067,2.067,0,0,0-2.25-2.25Zm-11.5,18h-3.5c-.589,0-.75-.161-.75-.75V1396a.75.75,0,0,0-1.5,0v3.5a2.067,2.067,0,0,0,2.25,2.25h3.5a.75.75,0,0,0,0-1.5Zm13-5a.75.75,0,0,0-.75.75v3.5c0,.589-.161.75-.75.75H1452a.75.75,0,0,0,0,1.5h3.5a2.067,2.067,0,0,0,2.25-2.25V1396A.75.75,0,0,0,1457,1395.25Zm-8.994-4.083a2.833,2.833,0,1,0-2.833-2.834,2.833,2.833,0,0,0,2.833,2.834Zm4.661,4.845a3.122,3.122,0,0,0-3.334-3.345h-2.666a3.114,3.114,0,0,0-3.334,3.345,1.765,1.765,0,0,0,2,1.988h5.33a1.765,1.765,0,0,0,2.007-1.99Z" fill="#ffa353"/>
  </g>
</svg>
