<svg xmlns="http://www.w3.org/2000/svg" width="24" height="24" viewBox="0 0 24 24"><g transform="translate(-1212 -1380)"><rect width="24" height="24" transform="translate(1212 1380)" fill="#816bff" opacity="0"/><path d="M1230.75,1398.35a2.857,2.857,0,0,1-3.183,3.15h-7.134a2.857,2.857,0,0,1-3.183-3.15,4.662,4.662,0,0,1,4.965-4.961h3.57a4.662,4.662,0,0,1,4.965,4.961Zm-6.742-6.838a3.506,3.506,0,1,0-3.52-3.506,3.506,3.506,0,0,0,3.52,3.506Zm6.782-2.582h-1.61a.3.3,0,0,0-.29.23,4.885,4.885,0,0,1-1.41,2.45.3.3,0,0,0,.16.5,5.611,5.611,0,0,1,3.73,2.78.3.3,0,0,0,.28.18h.42a2.186,2.186,0,0,0,2.43-2.42,3.493,3.493,0,0,0-3.71-3.72Zm-1.28-6.43a2.669,2.669,0,0,0-2.326,1.356.273.273,0,0,0-.021.2.253.253,0,0,0,.1.153,4.9,4.9,0,0,1,1.739,3.371.258.258,0,0,0,.078.171.31.31,0,0,0,.207.087c.071.006.144.01.218.01a2.675,2.675,0,0,0,0-5.35Zm-16.01,10.15a2.186,2.186,0,0,0,2.43,2.42h.42a.3.3,0,0,0,.28-.18,5.611,5.611,0,0,1,3.73-2.78.3.3,0,0,0,.16-.5,4.886,4.886,0,0,1-1.41-2.45.3.3,0,0,0-.29-.23h-1.61a3.493,3.493,0,0,0-3.71,3.72Zm2.32-7.48a2.678,2.678,0,0,0,2.67,2.68,1.569,1.569,0,0,0,.218-.01.311.311,0,0,0,.207-.087.258.258,0,0,0,.078-.171,4.905,4.905,0,0,1,1.739-3.371.254.254,0,0,0,.1-.153.273.273,0,0,0-.021-.2,2.671,2.671,0,0,0-5,1.314Z" fill="#816bff"/></g></svg>