<svg xmlns="http://www.w3.org/2000/svg" width="24" height="24" viewBox="0 0 24 24"><g transform="translate(-1436 -1436)"><rect width="24" height="24" transform="translate(1436 1436)" fill="#ff63a5" opacity="0"/><path d="M1442.01,1442.5a4,4,0,1,1,4,4A4,4,0,0,1,1442.01,1442.5Zm5.741,11.5a6.214,6.214,0,0,1,2.22-4.77.312.312,0,0,0,.09-.21c0-.2-.252-.287-.3-.3a6.78,6.78,0,0,0-1.76-.22h-4c-4.06,0-5.5,2.97-5.5,5.52,0,2.28,1.21,3.48,3.5,3.48h6.29a.3.3,0,0,0,.309-.3.248.248,0,0,0-.029-.132,6.179,6.179,0,0,1-.821-3.068Zm11,0a4.75,4.75,0,1,1-4.75-4.75,4.75,4.75,0,0,1,4.75,4.75Zm-7.508,1.7,4.456-4.456a3.234,3.234,0,0,0-4.456,4.456Zm6.008-1.7a3.214,3.214,0,0,0-.492-1.7l-4.456,4.456a3.234,3.234,0,0,0,4.948-2.758Z" fill="#ff63a5"/></g></svg>